<svg width="33" height="33" viewBox="0 0 33 33" fill="none" xmlns="http://www.w3.org/2000/svg">
<path d="M16.4862 2.75C8.89625 2.75 2.75 8.91 2.75 16.5C2.75 24.09 8.89625 30.25 16.4862 30.25C24.09 30.25 30.25 24.09 30.25 16.5C30.25 8.91 24.09 2.75 16.4862 2.75ZM16.5 27.5C10.4225 27.5 5.5 22.5775 5.5 16.5C5.5 10.4225 10.4225 5.5 16.5 5.5C22.5775 5.5 27.5 10.4225 27.5 16.5C27.5 22.5775 22.5775 27.5 16.5 27.5Z" fill="#252525"/>
<path d="M17.1875 9.625H15.125V17.875L22.3437 22.2063L23.375 20.515L17.1875 16.8438V9.625Z" fill="#252525"/>
</svg>
