<svg width="1440" height="801" viewBox="0 0 1440 801" fill="none" xmlns="http://www.w3.org/2000/svg">
<path d="M428.528 289.944V304.704C424.16 306.288 420.56 307.08 417.728 307.08C410.24 307.08 404.048 304.68 399.152 299.88C396.848 297.576 395.048 294.888 393.752 291.816C392.504 288.696 391.88 285.552 391.88 282.384C391.88 279.072 392.528 275.856 393.824 272.736C395.168 269.616 396.944 266.928 399.152 264.672C404.048 259.68 410.096 257.184 417.296 257.184C420.8 257.184 424.544 258 428.528 259.632V274.536C425.696 271.032 422.072 269.28 417.656 269.28C414.248 269.28 411.368 270.336 409.016 272.448C406.232 275.04 404.84 278.328 404.84 282.312C404.84 286.104 406.136 289.224 408.728 291.672C411.08 293.88 414.056 294.984 417.656 294.984C421.832 294.984 425.456 293.304 428.528 289.944ZM458.724 276.912V273.816H470.244V306H458.724V302.472C456.516 305.544 453.18 307.08 448.716 307.08C444.204 307.08 440.34 305.376 437.124 301.968C434.052 298.704 432.516 294.768 432.516 290.16C432.516 284.88 434.172 280.584 437.484 277.272C440.508 274.248 444.372 272.736 449.076 272.736C453.012 272.736 456.228 274.128 458.724 276.912ZM451.668 282.528C449.748 282.528 448.068 283.224 446.628 284.616C445.092 286.104 444.324 287.856 444.324 289.872C444.324 291.984 445.068 293.736 446.556 295.128C448.092 296.568 449.82 297.288 451.74 297.288C453.708 297.288 455.436 296.544 456.924 295.056C458.364 293.616 459.084 291.888 459.084 289.872C459.084 287.808 458.34 286.056 456.852 284.616C455.364 283.224 453.636 282.528 451.668 282.528ZM475.659 306L480.771 273.816H490.779L498.699 291.24L506.619 273.816H516.627L521.739 306H510.939L508.347 289.224L500.787 306H496.611L489.051 289.224L486.459 306H475.659ZM561.1 306V273.816H572.62V306H561.1ZM538.636 284.544H546.484C550.228 284.544 553.108 285.504 555.124 287.424C557.044 289.296 558.004 291.864 558.004 295.128C558.004 298.44 557.092 301.008 555.268 302.832C553.156 304.944 550.228 306 546.484 306H527.116V273.816H538.636V284.544ZM538.636 298.512H542.956C544.348 298.512 545.38 298.176 546.052 297.504C546.58 296.976 546.844 296.208 546.844 295.2C546.844 294.144 546.556 293.376 545.98 292.896C545.26 292.32 544.204 292.032 542.812 292.032H538.636V298.512ZM580.554 273.816H592.074V290.376L604.818 273.816H614.826V306H603.306V289.008L590.706 306H580.554V273.816ZM603.234 257.328L610.938 260.064C610.17 262.944 608.538 265.152 606.042 266.688C603.93 268.032 601.146 268.704 597.69 268.704C594.234 268.704 591.45 268.032 589.338 266.688C586.842 265.152 585.21 262.944 584.442 260.064L592.146 257.328C592.53 258.624 593.082 259.632 593.802 260.352C594.714 261.312 596.01 261.792 597.69 261.792C599.37 261.792 600.666 261.312 601.578 260.352C602.298 259.632 602.85 258.624 603.234 257.328ZM658.842 306V295.488C656.73 296.016 654.378 296.28 651.786 296.28C646.986 296.28 643.554 295.224 641.49 293.112C639.57 291.192 638.61 288.144 638.61 283.968V273.816H649.698V283.176C649.698 284.952 650.106 286.176 650.922 286.848C651.594 287.424 652.89 287.712 654.81 287.712C656.394 287.712 657.738 287.544 658.842 287.208V273.816H670.362V306H658.842ZM712.416 290.808V292.032H688.44C688.44 294.288 689.112 296.088 690.456 297.432C691.512 298.488 693.096 299.016 695.208 299.016C696.648 299.016 697.896 298.728 698.952 298.152C699.864 297.624 700.536 296.904 700.968 295.992H711.984C711.264 298.584 709.968 300.792 708.096 302.616C705.024 305.592 700.656 307.08 694.992 307.08C689.376 307.08 684.936 305.448 681.672 302.184C678.504 299.016 676.92 294.96 676.92 290.016C676.92 284.832 678.528 280.68 681.744 277.56C684.96 274.44 689.352 272.88 694.92 272.88C700.056 272.88 704.184 274.344 707.304 277.272C710.712 280.536 712.416 285.048 712.416 290.808ZM688.8 285.408H701.832C701.496 284.016 700.872 282.864 699.96 281.952C698.808 280.8 697.224 280.224 695.208 280.224C693.24 280.224 691.68 280.8 690.528 281.952C689.568 283.008 688.992 284.16 688.8 285.408ZM743.405 295.632V305.28C740.957 306.48 738.293 307.08 735.413 307.08C730.325 307.08 726.101 305.448 722.741 302.184C719.429 298.968 717.773 294.96 717.773 290.16C717.773 285.216 719.501 281.064 722.957 277.704C726.365 274.44 730.685 272.808 735.917 272.808C738.509 272.808 741.005 273.408 743.405 274.608V284.256C741.437 282.864 739.445 282.168 737.429 282.168C735.173 282.168 733.301 282.912 731.813 284.4C730.325 285.888 729.581 287.736 729.581 289.944C729.581 292.056 730.253 293.856 731.597 295.344C733.133 296.976 735.101 297.792 737.501 297.792C739.757 297.792 741.725 297.072 743.405 295.632ZM755.049 306V283.248H746.697V273.816H774.921V283.248H766.569V306H755.049ZM779.608 306V273.816H791.128V284.688H801.856V273.816H813.376V306H801.856V293.76H791.128V306H779.608ZM855.288 306V273.816H866.808V306H855.288ZM832.824 284.544H840.672C844.416 284.544 847.296 285.504 849.312 287.424C851.232 289.296 852.192 291.864 852.192 295.128C852.192 298.44 851.28 301.008 849.456 302.832C847.344 304.944 844.416 306 840.672 306H821.304V273.816H832.824V284.544ZM832.824 298.512H837.144C838.536 298.512 839.568 298.176 840.24 297.504C840.768 296.976 841.032 296.208 841.032 295.2C841.032 294.144 840.744 293.376 840.168 292.896C839.448 292.32 838.392 292.032 837 292.032H832.824V298.512ZM874.741 273.816H886.261V290.376L899.005 273.816H909.013V306H897.493V289.008L884.893 306H874.741V273.816ZM897.421 257.328L905.125 260.064C904.357 262.944 902.725 265.152 900.229 266.688C898.117 268.032 895.333 268.704 891.877 268.704C888.421 268.704 885.637 268.032 883.525 266.688C881.029 265.152 879.397 262.944 878.629 260.064L886.333 257.328C886.717 258.624 887.269 259.632 887.989 260.352C888.901 261.312 890.197 261.792 891.877 261.792C893.557 261.792 894.853 261.312 895.765 260.352C896.485 259.632 897.037 258.624 897.421 257.328ZM404.48 374.904V394.488H392.96V345.816H404.48V349.344C406.928 346.272 410.216 344.736 414.344 344.736C418.856 344.736 422.672 346.296 425.792 349.416C429.056 352.68 430.688 356.832 430.688 361.872C430.688 367.008 428.96 371.256 425.504 374.616C422.48 377.592 418.808 379.08 414.488 379.08C410.504 379.08 407.168 377.688 404.48 374.904ZM411.536 354.528C409.52 354.528 407.792 355.248 406.352 356.688C404.864 358.176 404.12 359.952 404.12 362.016C404.12 363.936 404.864 365.64 406.352 367.128C407.792 368.568 409.52 369.288 411.536 369.288C413.6 369.288 415.304 368.568 416.648 367.128C418.136 365.64 418.88 363.936 418.88 362.016C418.88 359.952 418.136 358.176 416.648 356.688C415.304 355.248 413.6 354.528 411.536 354.528ZM471.455 362.808V364.032H447.479C447.479 366.288 448.151 368.088 449.495 369.432C450.551 370.488 452.135 371.016 454.247 371.016C455.687 371.016 456.935 370.728 457.991 370.152C458.903 369.624 459.575 368.904 460.007 367.992H471.023C470.303 370.584 469.007 372.792 467.135 374.616C464.063 377.592 459.695 379.08 454.031 379.08C448.415 379.08 443.975 377.448 440.711 374.184C437.543 371.016 435.959 366.96 435.959 362.016C435.959 356.832 437.567 352.68 440.783 349.56C443.999 346.44 448.391 344.88 453.959 344.88C459.095 344.88 463.223 346.344 466.343 349.272C469.751 352.536 471.455 357.048 471.455 362.808ZM447.839 357.408H460.871C460.535 356.016 459.911 354.864 458.999 353.952C457.847 352.8 456.263 352.224 454.247 352.224C452.279 352.224 450.719 352.8 449.567 353.952C448.607 355.008 448.031 356.16 447.839 357.408ZM478.108 345.816H489.628V362.376L502.372 345.816H512.38V378H500.86V361.008L488.26 378H478.108V345.816ZM500.788 329.328L508.492 332.064C507.724 334.944 506.092 337.152 503.596 338.688C501.484 340.032 498.7 340.704 495.244 340.704C491.788 340.704 489.004 340.032 486.892 338.688C484.396 337.152 482.764 334.944 481.996 332.064L489.7 329.328C490.084 330.624 490.636 331.632 491.356 332.352C492.268 333.312 493.564 333.792 495.244 333.792C496.924 333.792 498.22 333.312 499.132 332.352C499.852 331.632 500.404 330.624 500.788 329.328ZM525.408 378V355.248H517.056V345.816H545.28V355.248H536.928V378H525.408ZM549.968 345.816H561.488V362.376L574.232 345.816H584.24V378H572.72V361.008L560.12 378H549.968V345.816ZM592.155 378V345.816H603.675V356.688H614.403V345.816H625.923V378H614.403V365.76H603.675V378H592.155ZM633.851 378V345.816H656.459V355.248H645.371V378H633.851ZM702.554 367.632V377.28C700.106 378.48 697.442 379.08 694.562 379.08C689.474 379.08 685.25 377.448 681.89 374.184C678.578 370.968 676.922 366.96 676.922 362.16C676.922 357.216 678.65 353.064 682.106 349.704C685.514 346.44 689.834 344.808 695.066 344.808C697.658 344.808 700.154 345.408 702.554 346.608V356.256C700.586 354.864 698.594 354.168 696.578 354.168C694.322 354.168 692.45 354.912 690.962 356.4C689.474 357.888 688.73 359.736 688.73 361.944C688.73 364.056 689.402 365.856 690.746 367.344C692.282 368.976 694.25 369.792 696.65 369.792C698.906 369.792 700.874 369.072 702.554 367.632ZM714.197 378V355.248H705.845V345.816H734.069V355.248H725.717V378H714.197ZM756.829 354.528C754.861 354.528 753.133 355.224 751.645 356.616C750.157 358.008 749.413 359.76 749.413 361.872C749.413 363.792 750.157 365.496 751.645 366.984C753.085 368.424 754.813 369.144 756.829 369.144C758.797 369.144 760.501 368.424 761.941 366.984C763.429 365.592 764.173 363.888 764.173 361.872C764.173 359.856 763.429 358.104 761.941 356.616C760.453 355.224 758.749 354.528 756.829 354.528ZM771.157 350.064C774.469 353.28 776.125 357.216 776.125 361.872C776.125 366.528 774.469 370.488 771.157 373.752C767.557 377.304 762.757 379.08 756.757 379.08C750.805 379.08 746.029 377.304 742.429 373.752C739.117 370.488 737.461 366.528 737.461 361.872C737.461 357.216 739.117 353.28 742.429 350.064C746.077 346.512 750.853 344.736 756.757 344.736C762.613 344.736 767.413 346.512 771.157 350.064ZM816.325 345.816V378H804.805V355.248H796.597V364.464C796.597 369.36 795.469 372.984 793.213 375.336C791.197 377.4 788.173 378.432 784.141 378.432C782.653 378.432 781.117 378.288 779.533 378V369.648C781.549 369.888 783.061 369.48 784.069 368.424C785.029 367.416 785.509 365.688 785.509 363.24V345.816H816.325ZM842.329 354.528C840.361 354.528 838.633 355.224 837.145 356.616C835.657 358.008 834.913 359.76 834.913 361.872C834.913 363.792 835.657 365.496 837.145 366.984C838.585 368.424 840.313 369.144 842.329 369.144C844.297 369.144 846.001 368.424 847.441 366.984C848.929 365.592 849.673 363.888 849.673 361.872C849.673 359.856 848.929 358.104 847.441 356.616C845.953 355.224 844.249 354.528 842.329 354.528ZM856.657 350.064C859.969 353.28 861.625 357.216 861.625 361.872C861.625 366.528 859.969 370.488 856.657 373.752C853.057 377.304 848.257 379.08 842.257 379.08C836.305 379.08 831.529 377.304 827.929 373.752C824.617 370.488 822.961 366.528 822.961 361.872C822.961 357.216 824.617 353.28 827.929 350.064C831.577 346.512 836.353 344.736 842.257 344.736C848.113 344.736 852.913 346.512 856.657 350.064ZM868.273 345.816H888.001C891.841 345.816 894.577 346.584 896.209 348.12C897.697 349.512 898.441 351.384 898.441 353.736C898.441 355.608 897.985 357.216 897.073 358.56C896.305 359.664 895.129 360.552 893.545 361.224V361.368C895.417 361.752 896.953 362.496 898.153 363.6C899.689 364.992 900.457 366.84 900.457 369.144C900.457 371.736 899.689 373.8 898.153 375.336C896.377 377.112 893.761 378 890.305 378H868.273V345.816ZM879.793 358.632H884.113C885.505 358.632 886.489 358.392 887.065 357.912C887.641 357.384 887.929 356.616 887.929 355.608C887.929 354.696 887.665 354.024 887.137 353.592C886.561 353.064 885.529 352.8 884.041 352.8H879.793V358.632ZM879.793 371.016H884.905C886.105 371.016 887.041 370.704 887.713 370.08C888.337 369.456 888.649 368.688 888.649 367.776C888.649 366.768 888.361 365.976 887.785 365.4C887.257 364.872 886.297 364.608 884.905 364.608H879.793V371.016ZM924.454 354.528C922.486 354.528 920.758 355.224 919.27 356.616C917.782 358.008 917.038 359.76 917.038 361.872C917.038 363.792 917.782 365.496 919.27 366.984C920.71 368.424 922.438 369.144 924.454 369.144C926.422 369.144 928.126 368.424 929.566 366.984C931.054 365.592 931.798 363.888 931.798 361.872C931.798 359.856 931.054 358.104 929.566 356.616C928.078 355.224 926.374 354.528 924.454 354.528ZM938.782 350.064C942.094 353.28 943.75 357.216 943.75 361.872C943.75 366.528 942.094 370.488 938.782 373.752C935.182 377.304 930.382 379.08 924.382 379.08C918.43 379.08 913.654 377.304 910.054 373.752C906.742 370.488 905.086 366.528 905.086 361.872C905.086 357.216 906.742 353.28 910.054 350.064C913.702 346.512 918.478 344.736 924.382 344.736C930.238 344.736 935.038 346.512 938.782 350.064ZM950.398 378V345.816H961.918V358.992L971.638 345.816H986.109L972.79 360.936L987.334 378H972.43L961.918 363.744V378H950.398ZM392.96 417.816H404.48V434.376L417.224 417.816H427.232V450H415.712V433.008L403.112 450H392.96V417.816ZM451.952 450V417.816H463.472V430.992L473.192 417.816H487.664L474.344 432.936L488.888 450H473.984L463.472 435.744V450H451.952ZM508.766 426.528C506.798 426.528 505.07 427.224 503.582 428.616C502.094 430.008 501.35 431.76 501.35 433.872C501.35 435.792 502.094 437.496 503.582 438.984C505.022 440.424 506.75 441.144 508.766 441.144C510.734 441.144 512.438 440.424 513.878 438.984C515.366 437.592 516.11 435.888 516.11 433.872C516.11 431.856 515.366 430.104 513.878 428.616C512.39 427.224 510.686 426.528 508.766 426.528ZM523.094 422.064C526.406 425.28 528.062 429.216 528.062 433.872C528.062 438.528 526.406 442.488 523.094 445.752C519.494 449.304 514.694 451.08 508.694 451.08C502.742 451.08 497.966 449.304 494.366 445.752C491.054 442.488 489.398 438.528 489.398 433.872C489.398 429.216 491.054 425.28 494.366 422.064C498.014 418.512 502.79 416.736 508.694 416.736C514.55 416.736 519.35 418.512 523.094 422.064ZM563.294 466.488H551.774V450.504H551.558C545.702 450.504 541.142 448.872 537.878 445.608C534.902 442.68 533.414 438.792 533.414 433.944C533.414 428.856 534.998 424.848 538.166 421.92C541.526 418.848 545.99 417.312 551.558 417.312H551.774V401.976H563.294V417.312H563.51C569.078 417.312 573.542 418.848 576.902 421.92C580.07 424.848 581.654 428.856 581.654 433.944C581.654 438.792 580.166 442.68 577.19 445.608C573.926 448.872 569.366 450.504 563.51 450.504H563.294V466.488ZM562.502 425.592V442.224H562.646C564.902 442.224 566.702 441.6 568.046 440.352C569.726 438.864 570.566 436.704 570.566 433.872C570.566 431.232 569.75 429.12 568.118 427.536C566.774 426.24 564.974 425.592 562.718 425.592H562.502ZM552.566 425.592H552.35C550.094 425.592 548.294 426.24 546.95 427.536C545.318 429.12 544.502 431.232 544.502 433.872C544.502 436.704 545.342 438.864 547.022 440.352C548.366 441.6 550.166 442.224 552.422 442.224H552.566V425.592ZM622.416 434.808V436.032H598.44C598.44 438.288 599.112 440.088 600.456 441.432C601.512 442.488 603.096 443.016 605.208 443.016C606.648 443.016 607.896 442.728 608.952 442.152C609.864 441.624 610.536 440.904 610.968 439.992H621.984C621.264 442.584 619.968 444.792 618.096 446.616C615.024 449.592 610.656 451.08 604.992 451.08C599.376 451.08 594.936 449.448 591.672 446.184C588.504 443.016 586.92 438.96 586.92 434.016C586.92 428.832 588.528 424.68 591.744 421.56C594.96 418.44 599.352 416.88 604.92 416.88C610.056 416.88 614.184 418.344 617.304 421.272C620.712 424.536 622.416 429.048 622.416 434.808ZM598.8 429.408H611.832C611.496 428.016 610.872 426.864 609.96 425.952C608.808 424.8 607.224 424.224 605.208 424.224C603.24 424.224 601.68 424.8 600.528 425.952C599.568 427.008 598.992 428.16 598.8 429.408ZM663.197 434.808V436.032H639.221C639.221 438.288 639.893 440.088 641.237 441.432C642.293 442.488 643.877 443.016 645.989 443.016C647.429 443.016 648.677 442.728 649.733 442.152C650.645 441.624 651.317 440.904 651.749 439.992H662.765C662.045 442.584 660.749 444.792 658.877 446.616C655.805 449.592 651.437 451.08 645.773 451.08C640.157 451.08 635.717 449.448 632.453 446.184C629.285 443.016 627.701 438.96 627.701 434.016C627.701 428.832 629.309 424.68 632.525 421.56C635.741 418.44 640.133 416.88 645.701 416.88C650.837 416.88 654.965 418.344 658.085 421.272C661.493 424.536 663.197 429.048 663.197 434.808ZM639.581 429.408H652.613C652.277 428.016 651.653 426.864 650.741 425.952C649.589 424.8 648.005 424.224 645.989 424.224C644.021 424.224 642.461 424.8 641.309 425.952C640.349 427.008 639.773 428.16 639.581 429.408ZM669.851 450V417.816H681.371V428.688H692.099V417.816H703.619V450H692.099V437.76H681.371V450H669.851ZM749.447 450H729.431V401.976H748.007C752.759 401.976 756.263 403.224 758.519 405.72C760.487 407.88 761.471 410.88 761.471 414.72C761.471 416.832 761.015 418.8 760.103 420.624C759.143 422.4 757.847 423.648 756.215 424.368C758.903 424.656 761.087 425.616 762.767 427.248C764.927 429.312 766.007 432.24 766.007 436.032C766.007 439.968 764.831 443.112 762.479 445.464C759.551 448.488 755.207 450 749.447 450ZM741.887 411.552V420.912H744.191C746.399 420.912 747.983 420.408 748.943 419.4C749.711 418.632 750.095 417.576 750.095 416.232C750.095 414.936 749.711 413.856 748.943 412.992C747.983 412.032 746.399 411.552 744.191 411.552H741.887ZM741.887 430.2V440.28H744.695C748.727 440.28 751.295 439.632 752.399 438.336C753.071 437.568 753.407 436.536 753.407 435.24C753.407 433.752 752.999 432.6 752.183 431.784C751.127 430.728 748.559 430.2 744.479 430.2H741.887ZM773.938 450V401.976H786.466V439.488H798.562V401.976H811.09V439.488H823.186V401.976H835.714V450H773.938ZM844.358 447.48V435.024C845.75 436.416 847.358 437.544 849.182 438.408C851.342 439.464 853.886 439.992 856.814 439.992C860.366 439.992 863.198 439.104 865.31 437.328C867.422 435.552 868.766 433.224 869.342 430.344H851.054V420.696H868.91C868.382 418.104 867.158 416.016 865.238 414.432C863.174 412.752 860.366 411.912 856.814 411.912C853.982 411.912 851.438 412.512 849.182 413.712C847.262 414.816 845.654 416.088 844.358 417.528V404.496C849.11 402.144 853.814 400.968 858.47 400.968C865.622 400.968 871.358 403.224 875.678 407.736C880.142 412.344 882.374 418.368 882.374 425.808C882.374 433.344 879.974 439.584 875.174 444.528C870.95 448.896 865.238 451.08 858.038 451.08C855.11 451.08 852.35 450.672 849.758 449.856C848.222 449.376 846.422 448.584 844.358 447.48Z" fill="white"/>
<g clip-path="url(#clip0)">
<path d="M1448.85 -1H-0.748047V814.411H1448.85V-1Z" fill="black" stroke="#1D1D1B" stroke-width="0.98" stroke-miterlimit="10"/>
<path d="M197.223 214.131C197.223 214.131 221.444 163.416 238.773 187.584C256.101 211.751 243.86 251.71 241.242 255.469C238.625 259.227 197.66 302.447 222.545 292.737C247.43 283.027 275.903 273.719 274.664 279.918C273.426 286.117 249.289 320.235 240.625 323.933C231.961 327.631 315.512 299.963 316.747 314.11C317.982 328.256 288.017 324.159 288.924 347.372C289.83 370.586 320.582 362.278 306.446 373.489C292.31 384.7 246.827 388.204 244.357 394.17C241.888 400.136 259.135 407.133 246.795 414.169C234.455 421.206 211.955 394.085 215.193 406.625C218.432 419.164 206.726 448.983 200.585 444.751C194.443 440.52 197.23 387.106 197.23 387.106C197.23 387.106 186.428 403.064 182.484 421.947C178.539 440.83 153.171 427.32 148.924 425.359C144.676 423.399 134.135 420.471 132.378 436.839C130.622 453.207 116.151 450.699 105.804 440.442C95.4568 430.184 53.3457 408.673 51.8569 376.022C50.3682 343.37 197.223 214.131 197.223 214.131Z" fill="#00E983" stroke="#66BAFF" stroke-width="0.67" stroke-miterlimit="10"/>
<path d="M65.0455 125.618C65.0455 125.618 50.7544 94.0118 46.6692 105.166C42.5841 116.321 24.9029 172.274 7.7614 168.156C-9.38007 164.037 -40.0859 130.174 -56.617 148.351C-73.1482 166.528 -79.3394 228.461 -105.953 234.052C-132.567 239.644 -100.481 294.205 -105.953 337.545C-111.425 380.885 -211.169 328.679 -171.57 369.363C-131.97 410.047 -49.8613 377.685 -47.5824 373.075C-45.3034 368.466 191.485 368.53 65.0455 125.618Z" fill="#00E983" stroke="#66BAFF" stroke-width="0.67" stroke-miterlimit="10"/>
<path d="M212.019 148.352L-6.375 251.573C-6.375 251.573 202.618 361.515 212.019 148.352Z" fill="#FF5A5A"/>
<path d="M214.186 369.364C214.186 369.364 270.376 296.58 194.783 246.207C119.19 195.835 69.2118 283.489 65.9698 292.737C62.7277 301.984 80.2855 507.508 214.186 369.364Z" fill="#006633" stroke="#66BAFF" stroke-width="0.8" stroke-miterlimit="10"/>
<path d="M185.068 267.386C185.068 267.386 220.367 318.062 214.539 340.396C208.711 362.73 187.858 364.168 185.068 370.879C182.277 377.59 184.122 390.624 175.624 391.719C167.125 392.814 77.8196 377.095 80.5149 331.922C83.2101 286.749 121.321 241.954 133.241 244.102C145.161 246.249 185.068 267.386 185.068 267.386Z" fill="#BEF98C"/>
<path d="M-10.8481 402.51C-10.8481 402.51 -11.6665 404.59 -12.8836 408.084C-17.9213 422.523 -29.8169 461.102 -19.0995 476.47C-5.78923 495.544 20.6303 494.484 22.1508 477.53C23.6712 460.575 61.1186 432.173 30.374 416.96" fill="#00E983"/>
<path d="M-10.8481 402.51C-10.8481 402.51 -11.6665 404.59 -12.8836 408.084C-17.9213 422.523 -29.8169 461.102 -19.0995 476.47C-5.78923 495.544 20.6303 494.484 22.1508 477.53C23.6712 460.575 61.1186 432.173 30.374 416.96" stroke="#66BAFF" stroke-width="0.67" stroke-miterlimit="10"/>
<path d="M22.1501 477.552C22.1501 477.552 -16.1933 492.797 -19.1002 486.901C-22.0071 481.006 -4.38938 422.262 -15.2514 402.521C-26.1134 382.78 -42.701 358.634 -47.5729 373.087C-52.4448 387.541 -38.8275 447.616 -51.6581 451.463C-64.4886 455.31 -71.0891 420.309 -82.4379 421.959C-93.7868 423.608 -97.9602 437.083 -98.3412 455.073C-98.7222 473.062 -112.664 462.215 -125.262 470.54C-137.859 478.866 -24.2755 491.119 22.1501 477.552Z" fill="#00E983" stroke="#66BAFF" stroke-width="0.67" stroke-miterlimit="10"/>
<path d="M122.549 476.032C122.549 476.032 91.6633 419.979 80.3074 421.989C68.9515 423.999 23.2632 453.539 22.7129 465.622C22.1626 477.706 27.366 487.483 122.549 476.032Z" fill="#FFD41D"/>
<path d="M75.8741 418.747C75.8741 418.747 123.041 338.305 60.5283 302.002C-1.98392 265.698 1.11346 347.68 0.496103 353.148C-0.121258 358.615 -11.8899 439.223 75.8741 418.747Z" fill="#005FD4" stroke="#66BAFF" stroke-width="0.67" stroke-miterlimit="10"/>
<path d="M46.6691 392.697L-53.8726 234.046C-53.8726 234.046 -94.9535 412.064 46.6691 392.697Z" fill="#FF5A5A"/>
<path d="M142.225 116.943C142.225 116.943 329.55 173.126 341.926 327.631C354.301 482.136 106.757 520.29 86.9379 522.625C67.1189 524.96 -102.857 536.355 -242.32 507.596C-381.784 478.837 -569.927 275.581 -337.217 202.871C-104.508 130.161 -40.1432 53.3357 142.225 116.943Z" stroke="#FFFDFD" stroke-width="13" stroke-miterlimit="10"/>
<path d="M-1.35874 118.18C-1.35874 118.18 265.994 155.363 303.141 292.931C339.806 428.765 171.097 527.581 -247.27 475.527" stroke="#FFFDFD" stroke-width="13" stroke-miterlimit="10"/>
<path d="M338.638 369.364C338.638 369.364 309.329 592.075 157.081 651.939C4.83267 711.802 -242.733 675.813 -310.798 642.388C-378.863 608.963 -456.848 389.197 -456.848 389.197" stroke="#FFFDFD" stroke-width="13" stroke-miterlimit="10"/>
<path d="M295.715 456.524C295.715 456.524 225.484 615.473 199.449 630.749C173.414 646.026 -155.509 721.925 -308.903 635.083C-308.903 635.083 -394.505 522.76 -381.184 489.649C-381.184 489.649 -69.9741 581.701 98.3468 535.843C266.668 489.985 292.099 434.219 295.715 456.524Z" fill="#66BAFF" stroke="#66BAFF" stroke-width="0.67" stroke-miterlimit="10"/>
<path d="M137.523 179.114C137.523 179.114 150.509 128.25 134.401 114.334C118.293 100.417 49.8721 132.701 40.3541 153.506C30.8362 174.31 23.7277 202.981 40.3541 208.127C56.9806 213.274 137.523 179.114 137.523 179.114Z" fill="#FFD41D"/>
<path d="M190.086 387.127C190.086 387.127 261.88 312.767 176.886 254.105C91.8908 195.442 67.9583 277.579 69.6058 310.044C71.2532 342.508 74.5447 380.518 120.759 394.565C166.972 408.613 190.086 387.127 190.086 387.127Z" stroke="black" stroke-width="8" stroke-miterlimit="10"/>
<path d="M195.04 356.549C195.04 356.549 218.969 314.413 195.04 289.624C171.111 264.836 141.418 253.271 133.149 255.751C124.88 258.23 87.6654 260.752 85.2876 293.757C83.4567 319.157 71.9985 362.062 116.646 375.552C160.345 388.759 185.508 383.503 195.04 356.549Z" stroke="black" stroke-width="6" stroke-miterlimit="10"/>
<path d="M160.378 327.632C160.378 327.632 180.183 344.985 168.63 354.074C157.076 363.162 160.378 327.632 160.378 327.632Z" fill="#165E16"/>
<path d="M135.625 316.424C135.625 316.424 127.374 350.601 115.005 341.598C102.637 332.594 135.625 316.424 135.625 316.424Z" fill="#165E16"/>
<path d="M144.153 294.584C144.153 294.584 146.355 270.622 135.627 271.449C124.899 272.275 144.153 294.584 144.153 294.584Z" fill="#165E16"/>
<path d="M123.92 470.571C123.92 470.571 97.6667 404.474 54.7548 424.3C11.8429 444.126 23.534 487.879 23.534 487.879L-28.5925 489.645C-28.5925 489.645 2.76594 454.881 -9.60951 420.587C-21.985 386.293 -27.767 330.107 -47.5719 373.072C-67.3769 416.038 -35.1788 458.767 -59.1148 451.448C-83.0508 444.129 -74.8028 397.271 -93.7823 423.59C-112.762 449.908 -81.4033 477.176 -98.7212 473.04C-116.039 468.904 -132.556 468.908 -133.382 475.513C-134.207 482.118 -185.97 488.398 -188.969 481.956" stroke="black" stroke-width="9" stroke-miterlimit="10"/>
<path d="M72.9089 271.427C70.4395 271.448 20.0981 272.44 11.0176 233.523C11.0176 233.523 171.934 173.122 192.564 158.252C192.564 158.252 220.434 213.612 172.251 244.183" stroke="black" stroke-width="9" stroke-miterlimit="10"/>
<path d="M192.563 158.242C192.563 158.242 195.865 232.669 152.953 237.593" stroke="black" stroke-width="9" stroke-miterlimit="10"/>
<path d="M84.7164 255.423C84.7164 255.423 37.4442 257.567 11.0176 233.523" stroke="black" stroke-width="9" stroke-miterlimit="10"/>
<path d="M152.954 192.956C152.954 192.956 162.031 215.248 152.954 214.856C143.877 214.463 152.954 192.956 152.954 192.956Z" fill="#A30707"/>
<path d="M82.6309 219.395C82.6309 219.395 93.2142 232.679 84.7158 237.603C76.2174 242.527 82.6309 219.395 82.6309 219.395Z" fill="#A30707"/>
<path d="M119.944 208.653C128.199 216.919 114.391 227.656 112.218 222.701C110.045 217.745 119.944 208.653 119.944 208.653Z" fill="#A30707"/>
<path d="M200.578 214.844C200.578 214.844 218.626 192.267 229.756 200.303C240.886 208.338 259.389 246.002 244.552 255.405C229.714 264.807 203.629 282.15 225.332 282.987C247.035 283.824 275.074 262.321 265.196 282.987C255.318 303.654 211.556 320.075 252.817 316.405C294.078 312.735 317.181 303.654 301.5 327.613C285.819 351.572 309.738 377.237 284.987 369.363C260.236 361.49 252.556 378.031 253.505 392.079C254.454 406.126 273.416 436.514 236.3 406.123C199.184 375.732 213.528 394.611 218.414 419.164C223.3 443.716 206.526 451.451 206.526 451.451C206.526 451.451 192.679 464.813 192.623 456.951C192.566 449.088 208.24 353.246 190.086 387.12C171.932 420.993 193.388 444.133 178.533 440.809C163.677 437.485 129.116 405.296 132.372 432.565C135.628 459.833 122.547 459.409 122.547 459.409" stroke="#FFFDFD" stroke-width="13" stroke-miterlimit="10"/>
<path d="M80.3074 440.001C80.3074 440.001 94.0481 448.263 84.7171 455.698C75.3861 463.133 64.6581 455.698 63.8326 447.849C63.0071 440.001 73.1213 432.339 80.3074 440.001Z" fill="#FFFDFD" stroke="black" stroke-width="7" stroke-miterlimit="10"/>
<path d="M-43.4449 365.196C-73.0782 322.842 -43.4449 238.292 -43.4449 238.292L44.044 388.763C44.044 388.763 12.5445 415.554 -17.5051 394.308" stroke="black" stroke-width="9" stroke-miterlimit="10"/>
<path d="M44.0274 388.774C44.0274 388.774 -8.96339 398.53 -20.8379 382.497" stroke="black" stroke-width="9" stroke-miterlimit="10"/>
<path d="M11.0187 357.541C11.0187 357.541 11.4315 377.205 6.89478 375.965C2.35806 374.725 11.0187 357.541 11.0187 357.541Z" fill="#A30707"/>
<path d="M97.0466 387.106C97.0466 387.106 73.8479 431.563 63.7867 423.594C53.7255 415.625 44.0311 430.485 44.0311 430.485C44.0311 430.485 2.51271 418.476 8.30884 405.092" stroke="black" stroke-width="9" stroke-miterlimit="10"/>
<path d="M69.5296 316.423C69.5296 316.423 30.6147 292.934 7.76172 318.956" stroke="black" stroke-width="9" stroke-miterlimit="10"/>
<path d="M38.6406 329.001C38.6406 329.001 79.8662 370.236 59.2958 402.509" stroke="#FFFDFD" stroke-width="12" stroke-miterlimit="10" stroke-linecap="round"/>
<path d="M154.938 311.485C154.938 311.485 160.395 285.7 173.956 291.352C187.517 297.003 154.938 311.485 154.938 311.485Z" fill="#165E16"/>
<path d="M142.994 177.668C142.994 177.668 155.747 126.236 123.919 118.179C92.0917 110.122 18.7916 140.202 51.8292 219.394" stroke="black" stroke-width="9" stroke-miterlimit="10"/>
<path d="M108.962 144.332C108.962 144.332 114.995 171.473 100.143 165.278C85.291 159.082 77.0255 139.2 87.9651 137.985C98.9047 136.77 108.962 144.332 108.962 144.332Z" fill="#FFFDFD" stroke="black" stroke-width="7" stroke-miterlimit="10"/>
<path d="M-52.917 389.921C-52.917 389.921 -68.1852 407.582 -138.12 366.782C-208.054 325.982 -133.181 340.026 -108.412 329.765C-83.6439 319.504 -81.7989 322.676 -118.932 260.089C-156.066 197.502 -86.7836 222.906 -59.4222 214.849C-32.0607 206.792 -28.5753 218.568 -39.402 168.157C-50.2288 117.746 -22.4017 139.25 -0.353067 152.025C21.6955 164.801 22.7786 154.742 38.6395 110.95C54.5003 67.1577 72.612 123.757 72.612 123.757" stroke="#FFFDFD" stroke-width="13" stroke-miterlimit="10"/>
<path d="M946.648 66C946.648 66 937.772 157.413 985.708 119.993C1033.64 82.573 950.43 92.343 981.559 134.185C1012.69 176.027 1024.47 131.36 1024.47 131.36" stroke="#FFD41D" stroke-width="8" stroke-miterlimit="10" stroke-linecap="round"/>
<path d="M342 632C381.158 639.064 380.661 666.29 365.844 690.041C351.028 713.791 314.967 677.678 412.612 651.512C510.257 625.345 364.818 735.535 385.91 705.907C407.003 676.279 448.313 684.478 429.439 719.453" stroke="#005FD4" stroke-width="8" stroke-miterlimit="10" stroke-linecap="round"/>
<path d="M172.252 81.1519L184.313 28.4482" stroke="#00E983" stroke-width="12" stroke-miterlimit="10" stroke-linecap="round"/>
<path d="M201 107L243 26" stroke="#00E983" stroke-width="12" stroke-miterlimit="10" stroke-linecap="round"/>
<path d="M359 122.975V79.4196L384.94 101.344L394.278 74.9902L415.028 113.452" stroke="#FF5A5A" stroke-width="8" stroke-miterlimit="10"/>
<path d="M446.291 102.128C442.774 98.3116 431.007 75.0331 431.007 75.0331L454.132 86.9994L451.989 66.0392L474.615 83.2935" stroke="#FF5A5A" stroke-width="8" stroke-miterlimit="10"/>
<path d="M497.539 71.5728L485.533 50.0386L504.817 53.951L502.575 35.3759L527.352 50.181" stroke="#FF5A5A" stroke-width="8" stroke-miterlimit="10"/>
<path d="M553.266 29.4691L535.047 14.3042L551.875 3.22677L550.803 -10.8599L583.818 10.7576" stroke="#FF5A5A" stroke-width="8" stroke-miterlimit="10"/>
<path d="M1463.53 563.362C1463.53 563.362 1314.72 393.686 1302.83 340.983C1302.83 340.983 1254.21 305.343 1248.09 283.33C1241.97 261.318 1141.6 110.518 1161.18 54.7982C1180.77 -0.922025 1325.22 337.306 1331.33 343.434C1337.44 349.562 1472.97 479.494 1463.53 508.892C1454.1 538.29 1463.53 563.362 1463.53 563.362Z" fill="#66BAFF" stroke="#66BAFF" stroke-width="0.67" stroke-miterlimit="10"/>
<path d="M1512.5 740.537C1512.5 740.537 1304.4 562.073 1228.51 389.632C1228.51 389.632 1197.91 393.366 1186.89 376.023C1175.87 358.68 1213.82 311.186 1222.38 329.765C1230.93 348.345 1523.52 700.079 1530.86 714.798C1538.21 729.517 1512.5 740.537 1512.5 740.537Z" fill="#66BAFF" stroke="#66BAFF" stroke-width="0.67" stroke-miterlimit="10"/>
<path d="M1452.52 563.736C1452.52 563.736 1310.52 387.551 1295.83 334.851C1295.83 334.851 1289.71 327.497 1278.69 321.368C1267.68 315.24 1169.75 184.101 1152.61 66.4403C1135.47 -51.2202 1322.76 296.262 1326.44 303.916C1330.12 311.57 1326.44 324.374 1335.01 328.994C1343.58 333.615 1448.85 473.344 1452.52 503.986C1456.2 534.628 1452.52 563.736 1452.52 563.736Z" stroke="white" stroke-width="8" stroke-miterlimit="10"/>
<path d="M1494.14 747.205C1494.14 747.205 1312.19 518.397 1270.96 450.795C1229.73 383.192 1191.79 389.953 1186.89 385.361C1182 380.769 1139.15 340.297 1107.33 292.5C1075.5 244.702 1172.2 355.019 1175.88 358.682C1179.55 362.345 1187.52 365.118 1182.3 353.472C1177.09 341.827 1109.49 266.146 1116.51 266.146C1123.53 266.146 1187.8 343.681 1188.73 345.2C1189.65 346.719 1204.03 354.384 1195.78 339.686C1187.53 324.989 1123.24 246.546 1132.42 251.442C1141.59 256.337 1201.88 333.251 1202.8 333.251C1203.72 333.251 1214.74 343.056 1208.92 327.43C1203.11 311.803 1139.47 237.037 1147.72 240.103C1155.97 243.169 1236.49 336.928 1238 345.8C1239.51 354.673 1254.83 400.033 1292.17 428.528C1329.5 457.022 1497.36 664.477 1504.24 672.736C1511.12 680.994 1494.14 747.205 1494.14 747.205Z" stroke="white" stroke-width="8" stroke-miterlimit="10"/>
<path d="M1166.08 70.6436C1166.08 70.6436 1222.37 252.106 1278.7 290.554V279.918L1166.08 70.6436Z" fill="#E6F5FF"/>
<path d="M1317.87 355.56C1317.87 355.56 1423.14 507.67 1430.49 512.569C1437.83 517.468 1339.9 364.271 1317.87 349.562" fill="#E6F5FF"/>
<path d="M1286.58 446.514C1286.58 446.514 1467.98 694.261 1484.88 704.995C1501.79 715.73 1351 570.582 1286.58 446.514Z" fill="#E6F5FF"/>
<path d="M135.626 630.724C135.626 630.724 184.8 551.313 184.309 533.274C183.819 515.235 243.107 486.544 243.107 502.089C243.107 517.634 193.012 608.369 178.28 619.548C163.548 630.727 124.373 649.458 135.626 630.724Z" fill="#E6F5FF"/>
<path d="M1349.17 -52.8441C1349.17 -52.8441 1348.07 12.2916 1314.82 19.136C1281.57 25.9804 1246.48 89.9901 1295.42 91.8353C1344.36 93.6806 1375.56 117.137 1344.35 116.978C1313.13 116.82 1308.94 57.2145 1360.33 69.6393" stroke="#00E983" stroke-width="8" stroke-miterlimit="10" stroke-linecap="round"/>
<path d="M1117 369C1115.16 364.012 1115.43 332.667 1122.26 320L1127.76 327.5L1124.5 340L1123 347.5L1122 353.5L1121.5 358V361L1122.26 366C1123 373.5 1120.5 378.5 1117 369Z" fill="#FFD41D" stroke="#FFD41D"/>
<path d="M166 722C174 748.667 199.2 798.4 236 784C282 766 306 684 260 744C214 804 238 838 280 868" stroke="black"/>
<path d="M104 708L176 892" stroke="black"/>
</g>
<path d="M496.528 305.944V320.704C492.16 322.288 488.56 323.08 485.728 323.08C478.24 323.08 472.048 320.68 467.152 315.88C464.848 313.576 463.048 310.888 461.752 307.816C460.504 304.696 459.88 301.552 459.88 298.384C459.88 295.072 460.528 291.856 461.824 288.736C463.168 285.616 464.944 282.928 467.152 280.672C472.048 275.68 478.096 273.184 485.296 273.184C488.8 273.184 492.544 274 496.528 275.632V290.536C493.696 287.032 490.072 285.28 485.656 285.28C482.248 285.28 479.368 286.336 477.016 288.448C474.232 291.04 472.84 294.328 472.84 298.312C472.84 302.104 474.136 305.224 476.728 307.672C479.08 309.88 482.056 310.984 485.656 310.984C489.832 310.984 493.456 309.304 496.528 305.944ZM526.724 292.912V289.816H538.244V322H526.724V318.472C524.516 321.544 521.18 323.08 516.716 323.08C512.204 323.08 508.34 321.376 505.124 317.968C502.052 314.704 500.516 310.768 500.516 306.16C500.516 300.88 502.172 296.584 505.484 293.272C508.508 290.248 512.372 288.736 517.076 288.736C521.012 288.736 524.228 290.128 526.724 292.912ZM519.668 298.528C517.748 298.528 516.068 299.224 514.628 300.616C513.092 302.104 512.324 303.856 512.324 305.872C512.324 307.984 513.068 309.736 514.556 311.128C516.092 312.568 517.82 313.288 519.74 313.288C521.708 313.288 523.436 312.544 524.924 311.056C526.364 309.616 527.084 307.888 527.084 305.872C527.084 303.808 526.34 302.056 524.852 300.616C523.364 299.224 521.636 298.528 519.668 298.528ZM543.659 322L548.771 289.816H558.779L566.699 307.24L574.619 289.816H584.627L589.739 322H578.939L576.347 305.224L568.787 322H564.611L557.051 305.224L554.459 322H543.659ZM629.1 322V289.816H640.62V322H629.1ZM606.636 300.544H614.484C618.228 300.544 621.108 301.504 623.124 303.424C625.044 305.296 626.004 307.864 626.004 311.128C626.004 314.44 625.092 317.008 623.268 318.832C621.156 320.944 618.228 322 614.484 322H595.116V289.816H606.636V300.544ZM606.636 314.512H610.956C612.348 314.512 613.38 314.176 614.052 313.504C614.58 312.976 614.844 312.208 614.844 311.2C614.844 310.144 614.556 309.376 613.98 308.896C613.26 308.32 612.204 308.032 610.812 308.032H606.636V314.512ZM648.554 289.816H660.074V306.376L672.818 289.816H682.826V322H671.306V305.008L658.706 322H648.554V289.816ZM671.234 273.328L678.938 276.064C678.17 278.944 676.538 281.152 674.042 282.688C671.93 284.032 669.146 284.704 665.69 284.704C662.234 284.704 659.45 284.032 657.338 282.688C654.842 281.152 653.21 278.944 652.442 276.064L660.146 273.328C660.53 274.624 661.082 275.632 661.802 276.352C662.714 277.312 664.01 277.792 665.69 277.792C667.37 277.792 668.666 277.312 669.578 276.352C670.298 275.632 670.85 274.624 671.234 273.328ZM726.842 322V311.488C724.73 312.016 722.378 312.28 719.786 312.28C714.986 312.28 711.554 311.224 709.49 309.112C707.57 307.192 706.61 304.144 706.61 299.968V289.816H717.698V299.176C717.698 300.952 718.106 302.176 718.922 302.848C719.594 303.424 720.89 303.712 722.81 303.712C724.394 303.712 725.738 303.544 726.842 303.208V289.816H738.362V322H726.842ZM780.416 306.808V308.032H756.44C756.44 310.288 757.112 312.088 758.456 313.432C759.512 314.488 761.096 315.016 763.208 315.016C764.648 315.016 765.896 314.728 766.952 314.152C767.864 313.624 768.536 312.904 768.968 311.992H779.984C779.264 314.584 777.968 316.792 776.096 318.616C773.024 321.592 768.656 323.08 762.992 323.08C757.376 323.08 752.936 321.448 749.672 318.184C746.504 315.016 744.92 310.96 744.92 306.016C744.92 300.832 746.528 296.68 749.744 293.56C752.96 290.44 757.352 288.88 762.92 288.88C768.056 288.88 772.184 290.344 775.304 293.272C778.712 296.536 780.416 301.048 780.416 306.808ZM756.8 301.408H769.832C769.496 300.016 768.872 298.864 767.96 297.952C766.808 296.8 765.224 296.224 763.208 296.224C761.24 296.224 759.68 296.8 758.528 297.952C757.568 299.008 756.992 300.16 756.8 301.408ZM811.405 311.632V321.28C808.957 322.48 806.293 323.08 803.413 323.08C798.325 323.08 794.101 321.448 790.741 318.184C787.429 314.968 785.773 310.96 785.773 306.16C785.773 301.216 787.501 297.064 790.957 293.704C794.365 290.44 798.685 288.808 803.917 288.808C806.509 288.808 809.005 289.408 811.405 290.608V300.256C809.437 298.864 807.445 298.168 805.429 298.168C803.173 298.168 801.301 298.912 799.813 300.4C798.325 301.888 797.581 303.736 797.581 305.944C797.581 308.056 798.253 309.856 799.597 311.344C801.133 312.976 803.101 313.792 805.501 313.792C807.757 313.792 809.725 313.072 811.405 311.632ZM823.049 322V299.248H814.697V289.816H842.921V299.248H834.569V322H823.049ZM847.608 322V289.816H859.128V300.688H869.856V289.816H881.376V322H869.856V309.76H859.128V322H847.608ZM923.288 322V289.816H934.808V322H923.288ZM900.824 300.544H908.672C912.416 300.544 915.296 301.504 917.312 303.424C919.232 305.296 920.192 307.864 920.192 311.128C920.192 314.44 919.28 317.008 917.456 318.832C915.344 320.944 912.416 322 908.672 322H889.304V289.816H900.824V300.544ZM900.824 314.512H905.144C906.536 314.512 907.568 314.176 908.24 313.504C908.768 312.976 909.032 312.208 909.032 311.2C909.032 310.144 908.744 309.376 908.168 308.896C907.448 308.32 906.392 308.032 905 308.032H900.824V314.512ZM942.741 289.816H954.261V306.376L967.005 289.816H977.013V322H965.493V305.008L952.893 322H942.741V289.816ZM965.421 273.328L973.125 276.064C972.357 278.944 970.725 281.152 968.229 282.688C966.117 284.032 963.333 284.704 959.877 284.704C956.421 284.704 953.637 284.032 951.525 282.688C949.029 281.152 947.397 278.944 946.629 276.064L954.333 273.328C954.717 274.624 955.269 275.632 955.989 276.352C956.901 277.312 958.197 277.792 959.877 277.792C961.557 277.792 962.853 277.312 963.765 276.352C964.485 275.632 965.037 274.624 965.421 273.328ZM472.48 390.904V410.488H460.96V361.816H472.48V365.344C474.928 362.272 478.216 360.736 482.344 360.736C486.856 360.736 490.672 362.296 493.792 365.416C497.056 368.68 498.688 372.832 498.688 377.872C498.688 383.008 496.96 387.256 493.504 390.616C490.48 393.592 486.808 395.08 482.488 395.08C478.504 395.08 475.168 393.688 472.48 390.904ZM479.536 370.528C477.52 370.528 475.792 371.248 474.352 372.688C472.864 374.176 472.12 375.952 472.12 378.016C472.12 379.936 472.864 381.64 474.352 383.128C475.792 384.568 477.52 385.288 479.536 385.288C481.6 385.288 483.304 384.568 484.648 383.128C486.136 381.64 486.88 379.936 486.88 378.016C486.88 375.952 486.136 374.176 484.648 372.688C483.304 371.248 481.6 370.528 479.536 370.528ZM539.455 378.808V380.032H515.479C515.479 382.288 516.151 384.088 517.495 385.432C518.551 386.488 520.135 387.016 522.247 387.016C523.687 387.016 524.935 386.728 525.991 386.152C526.903 385.624 527.575 384.904 528.007 383.992H539.023C538.303 386.584 537.007 388.792 535.135 390.616C532.063 393.592 527.695 395.08 522.031 395.08C516.415 395.08 511.975 393.448 508.711 390.184C505.543 387.016 503.959 382.96 503.959 378.016C503.959 372.832 505.567 368.68 508.783 365.56C511.999 362.44 516.391 360.88 521.959 360.88C527.095 360.88 531.223 362.344 534.343 365.272C537.751 368.536 539.455 373.048 539.455 378.808ZM515.839 373.408H528.871C528.535 372.016 527.911 370.864 526.999 369.952C525.847 368.8 524.263 368.224 522.247 368.224C520.279 368.224 518.719 368.8 517.567 369.952C516.607 371.008 516.031 372.16 515.839 373.408ZM546.108 361.816H557.628V378.376L570.372 361.816H580.38V394H568.86V377.008L556.26 394H546.108V361.816ZM568.788 345.328L576.492 348.064C575.724 350.944 574.092 353.152 571.596 354.688C569.484 356.032 566.7 356.704 563.244 356.704C559.788 356.704 557.004 356.032 554.892 354.688C552.396 353.152 550.764 350.944 549.996 348.064L557.7 345.328C558.084 346.624 558.636 347.632 559.356 348.352C560.268 349.312 561.564 349.792 563.244 349.792C564.924 349.792 566.22 349.312 567.132 348.352C567.852 347.632 568.404 346.624 568.788 345.328ZM593.408 394V371.248H585.056V361.816H613.28V371.248H604.928V394H593.408ZM617.968 361.816H629.488V378.376L642.232 361.816H652.24V394H640.72V377.008L628.12 394H617.968V361.816ZM660.155 394V361.816H671.675V372.688H682.403V361.816H693.923V394H682.403V381.76H671.675V394H660.155ZM701.851 394V361.816H724.459V371.248H713.371V394H701.851ZM746.218 394V361.816H757.738V374.992L767.458 361.816H781.93L768.61 376.936L783.154 394H768.25L757.738 379.744V394H746.218ZM803.032 370.528C801.064 370.528 799.336 371.224 797.848 372.616C796.36 374.008 795.616 375.76 795.616 377.872C795.616 379.792 796.36 381.496 797.848 382.984C799.288 384.424 801.016 385.144 803.032 385.144C805 385.144 806.704 384.424 808.144 382.984C809.632 381.592 810.376 379.888 810.376 377.872C810.376 375.856 809.632 374.104 808.144 372.616C806.656 371.224 804.952 370.528 803.032 370.528ZM817.36 366.064C820.672 369.28 822.328 373.216 822.328 377.872C822.328 382.528 820.672 386.488 817.36 389.752C813.76 393.304 808.96 395.08 802.96 395.08C797.008 395.08 792.232 393.304 788.632 389.752C785.32 386.488 783.664 382.528 783.664 377.872C783.664 373.216 785.32 369.28 788.632 366.064C792.28 362.512 797.056 360.736 802.96 360.736C808.816 360.736 813.616 362.512 817.36 366.064ZM857.56 410.488H846.04V394.504H845.824C839.968 394.504 835.408 392.872 832.144 389.608C829.168 386.68 827.68 382.792 827.68 377.944C827.68 372.856 829.264 368.848 832.432 365.92C835.792 362.848 840.256 361.312 845.824 361.312H846.04V345.976H857.56V361.312H857.776C863.344 361.312 867.808 362.848 871.168 365.92C874.336 368.848 875.92 372.856 875.92 377.944C875.92 382.792 874.432 386.68 871.456 389.608C868.192 392.872 863.632 394.504 857.776 394.504H857.56V410.488ZM856.768 369.592V386.224H856.912C859.168 386.224 860.968 385.6 862.312 384.352C863.992 382.864 864.832 380.704 864.832 377.872C864.832 375.232 864.016 373.12 862.384 371.536C861.04 370.24 859.24 369.592 856.984 369.592H856.768ZM846.832 369.592H846.616C844.36 369.592 842.56 370.24 841.216 371.536C839.584 373.12 838.768 375.232 838.768 377.872C838.768 380.704 839.608 382.864 841.288 384.352C842.632 385.6 844.432 386.224 846.688 386.224H846.832V369.592ZM916.682 378.808V380.032H892.706C892.706 382.288 893.378 384.088 894.722 385.432C895.778 386.488 897.362 387.016 899.474 387.016C900.914 387.016 902.162 386.728 903.218 386.152C904.13 385.624 904.802 384.904 905.234 383.992H916.25C915.53 386.584 914.234 388.792 912.362 390.616C909.29 393.592 904.922 395.08 899.258 395.08C893.642 395.08 889.202 393.448 885.938 390.184C882.77 387.016 881.186 382.96 881.186 378.016C881.186 372.832 882.794 368.68 886.01 365.56C889.226 362.44 893.618 360.88 899.186 360.88C904.322 360.88 908.45 362.344 911.57 365.272C914.978 368.536 916.682 373.048 916.682 378.808ZM893.066 373.408H906.098C905.762 372.016 905.138 370.864 904.226 369.952C903.074 368.8 901.49 368.224 899.474 368.224C897.506 368.224 895.946 368.8 894.794 369.952C893.834 371.008 893.258 372.16 893.066 373.408ZM957.463 378.808V380.032H933.487C933.487 382.288 934.159 384.088 935.503 385.432C936.559 386.488 938.143 387.016 940.255 387.016C941.695 387.016 942.943 386.728 943.999 386.152C944.911 385.624 945.583 384.904 946.015 383.992H957.031C956.311 386.584 955.015 388.792 953.143 390.616C950.071 393.592 945.703 395.08 940.039 395.08C934.423 395.08 929.983 393.448 926.719 390.184C923.551 387.016 921.967 382.96 921.967 378.016C921.967 372.832 923.575 368.68 926.791 365.56C930.007 362.44 934.399 360.88 939.967 360.88C945.103 360.88 949.231 362.344 952.351 365.272C955.759 368.536 957.463 373.048 957.463 378.808ZM933.847 373.408H946.879C946.543 372.016 945.919 370.864 945.007 369.952C943.855 368.8 942.271 368.224 940.255 368.224C938.287 368.224 936.727 368.8 935.575 369.952C934.615 371.008 934.039 372.16 933.847 373.408ZM964.116 394V361.816H975.636V372.688H986.364V361.816H997.884V394H986.364V381.76H975.636V394H964.116ZM460.96 433.816H472.48V450.376L485.224 433.816H495.232V466H483.712V449.008L471.112 466H460.96V433.816ZM544.288 455.632V465.28C541.84 466.48 539.176 467.08 536.296 467.08C531.208 467.08 526.984 465.448 523.624 462.184C520.312 458.968 518.656 454.96 518.656 450.16C518.656 445.216 520.384 441.064 523.84 437.704C527.248 434.44 531.568 432.808 536.8 432.808C539.392 432.808 541.888 433.408 544.288 434.608V444.256C542.32 442.864 540.328 442.168 538.312 442.168C536.056 442.168 534.184 442.912 532.696 444.4C531.208 445.888 530.464 447.736 530.464 449.944C530.464 452.056 531.136 453.856 532.48 455.344C534.016 456.976 535.984 457.792 538.384 457.792C540.64 457.792 542.608 457.072 544.288 455.632ZM555.931 466V443.248H547.579V433.816H575.803V443.248H567.451V466H555.931ZM598.563 442.528C596.595 442.528 594.867 443.224 593.379 444.616C591.891 446.008 591.147 447.76 591.147 449.872C591.147 451.792 591.891 453.496 593.379 454.984C594.819 456.424 596.547 457.144 598.563 457.144C600.531 457.144 602.235 456.424 603.675 454.984C605.163 453.592 605.907 451.888 605.907 449.872C605.907 447.856 605.163 446.104 603.675 444.616C602.187 443.224 600.483 442.528 598.563 442.528ZM612.891 438.064C616.203 441.28 617.859 445.216 617.859 449.872C617.859 454.528 616.203 458.488 612.891 461.752C609.291 465.304 604.491 467.08 598.491 467.08C592.539 467.08 587.763 465.304 584.163 461.752C580.851 458.488 579.195 454.528 579.195 449.872C579.195 445.216 580.851 441.28 584.163 438.064C587.811 434.512 592.587 432.736 598.491 432.736C604.347 432.736 609.147 434.512 612.891 438.064ZM658.059 433.816V466H646.539V443.248H638.331V452.464C638.331 457.36 637.203 460.984 634.947 463.336C632.931 465.4 629.907 466.432 625.875 466.432C624.387 466.432 622.851 466.288 621.267 466V457.648C623.283 457.888 624.795 457.48 625.803 456.424C626.763 455.416 627.243 453.688 627.243 451.24V433.816H658.059ZM684.063 442.528C682.095 442.528 680.367 443.224 678.879 444.616C677.391 446.008 676.647 447.76 676.647 449.872C676.647 451.792 677.391 453.496 678.879 454.984C680.319 456.424 682.047 457.144 684.063 457.144C686.031 457.144 687.735 456.424 689.175 454.984C690.663 453.592 691.407 451.888 691.407 449.872C691.407 447.856 690.663 446.104 689.175 444.616C687.687 443.224 685.983 442.528 684.063 442.528ZM698.391 438.064C701.703 441.28 703.359 445.216 703.359 449.872C703.359 454.528 701.703 458.488 698.391 461.752C694.791 465.304 689.991 467.08 683.991 467.08C678.039 467.08 673.263 465.304 669.663 461.752C666.351 458.488 664.695 454.528 664.695 449.872C664.695 445.216 666.351 441.28 669.663 438.064C673.311 434.512 678.087 432.736 683.991 432.736C689.847 432.736 694.647 434.512 698.391 438.064ZM710.007 433.816H729.735C733.575 433.816 736.311 434.584 737.943 436.12C739.431 437.512 740.175 439.384 740.175 441.736C740.175 443.608 739.719 445.216 738.807 446.56C738.039 447.664 736.863 448.552 735.279 449.224V449.368C737.151 449.752 738.687 450.496 739.887 451.6C741.423 452.992 742.191 454.84 742.191 457.144C742.191 459.736 741.423 461.8 739.887 463.336C738.111 465.112 735.495 466 732.039 466H710.007V433.816ZM721.527 446.632H725.847C727.239 446.632 728.223 446.392 728.799 445.912C729.375 445.384 729.663 444.616 729.663 443.608C729.663 442.696 729.399 442.024 728.871 441.592C728.295 441.064 727.263 440.8 725.775 440.8H721.527V446.632ZM721.527 459.016H726.639C727.839 459.016 728.775 458.704 729.447 458.08C730.071 457.456 730.383 456.688 730.383 455.776C730.383 454.768 730.095 453.976 729.519 453.4C728.991 452.872 728.031 452.608 726.639 452.608H721.527V459.016ZM766.188 442.528C764.22 442.528 762.492 443.224 761.004 444.616C759.516 446.008 758.772 447.76 758.772 449.872C758.772 451.792 759.516 453.496 761.004 454.984C762.444 456.424 764.172 457.144 766.188 457.144C768.156 457.144 769.86 456.424 771.3 454.984C772.788 453.592 773.532 451.888 773.532 449.872C773.532 447.856 772.788 446.104 771.3 444.616C769.812 443.224 768.108 442.528 766.188 442.528ZM780.516 438.064C783.828 441.28 785.484 445.216 785.484 449.872C785.484 454.528 783.828 458.488 780.516 461.752C776.916 465.304 772.116 467.08 766.116 467.08C760.164 467.08 755.388 465.304 751.788 461.752C748.476 458.488 746.82 454.528 746.82 449.872C746.82 445.216 748.476 441.28 751.788 438.064C755.436 434.512 760.212 432.736 766.116 432.736C771.972 432.736 776.772 434.512 780.516 438.064ZM792.132 466V433.816H803.652V446.992L813.372 433.816H827.844L814.524 448.936L829.068 466H814.164L803.652 451.744V466H792.132ZM871.025 466H851.009V417.976H869.585C874.337 417.976 877.841 419.224 880.097 421.72C882.065 423.88 883.049 426.88 883.049 430.72C883.049 432.832 882.593 434.8 881.681 436.624C880.721 438.4 879.425 439.648 877.793 440.368C880.481 440.656 882.665 441.616 884.345 443.248C886.505 445.312 887.585 448.24 887.585 452.032C887.585 455.968 886.409 459.112 884.057 461.464C881.129 464.488 876.785 466 871.025 466ZM863.465 427.552V436.912H865.769C867.977 436.912 869.561 436.408 870.521 435.4C871.289 434.632 871.673 433.576 871.673 432.232C871.673 430.936 871.289 429.856 870.521 428.992C869.561 428.032 867.977 427.552 865.769 427.552H863.465ZM863.465 446.2V456.28H866.273C870.305 456.28 872.873 455.632 873.977 454.336C874.649 453.568 874.985 452.536 874.985 451.24C874.985 449.752 874.577 448.6 873.761 447.784C872.705 446.728 870.137 446.2 866.057 446.2H863.465ZM895.517 466V417.976H908.045V455.488H920.141V417.976H932.669V455.488H944.765V417.976H957.293V466H895.517ZM965.936 463.48V451.024C967.328 452.416 968.936 453.544 970.76 454.408C972.92 455.464 975.464 455.992 978.392 455.992C981.944 455.992 984.776 455.104 986.888 453.328C989 451.552 990.344 449.224 990.92 446.344H972.632V436.696H990.488C989.96 434.104 988.736 432.016 986.816 430.432C984.752 428.752 981.944 427.912 978.392 427.912C975.56 427.912 973.016 428.512 970.76 429.712C968.84 430.816 967.232 432.088 965.936 433.528V420.496C970.688 418.144 975.392 416.968 980.048 416.968C987.2 416.968 992.936 419.224 997.256 423.736C1001.72 428.344 1003.95 434.368 1003.95 441.808C1003.95 449.344 1001.55 455.584 996.752 460.528C992.528 464.896 986.816 467.08 979.616 467.08C976.688 467.08 973.928 466.672 971.336 465.856C969.8 465.376 968 464.584 965.936 463.48Z" fill="white"/>
<defs>
<clipPath id="clip0">
<rect width="1440" height="801" fill="white"/>
</clipPath>
</defs>
</svg>
