<svg width="188" height="195" viewBox="0 0 188 195" fill="none" xmlns="http://www.w3.org/2000/svg">
<path d="M22.5135 16.7275L24.0748 37.4774M25.6361 58.2274L24.0748 37.4774M24.0748 37.4774L48.1897 41.5666L48.7595 17.1141L47.62 66.0191" stroke="#FC70B0" stroke-width="8"/>
<path d="M64.9937 135.676L84.1781 120.711M84.1781 120.711L103.363 105.746C96.802 95.6426 82.6938 78.8755 78.7454 92.6309C75.6417 103.443 78.6387 112.365 81.7417 117.451M84.1781 120.711C83.4387 119.935 82.5863 118.835 81.7417 117.451M59.1228 113.985L81.7417 117.451" stroke="#FC70B0" stroke-width="8"/>
<path d="M118.879 167.899L143.091 138.003L143.16 173.85L164.56 160.808L159.57 191.421" stroke="#FC70B0" stroke-width="8"/>
</svg>
