<svg width="763" height="1824" viewBox="0 0 763 1824" fill="none" xmlns="http://www.w3.org/2000/svg">
<path d="M828.666 20.6001C829.549 18.5754 828.625 16.2177 826.6 15.334L793.606 0.933193C791.581 0.04949 789.223 0.97444 788.34 2.99913C787.456 5.02382 788.381 7.38153 790.405 8.26524L819.734 21.0659L806.933 50.3941C806.049 52.4188 806.974 54.7765 808.999 55.6602C811.024 56.5439 813.381 55.619 814.265 53.5943L828.666 20.6001ZM309 431L312.999 430.923L309 431ZM9.24741 1805.61C8.48137 1807.69 9.54012 1809.99 11.6122 1810.75L45.3786 1823.24C47.4506 1824 49.7514 1822.94 50.5174 1820.87C51.2834 1818.8 50.2247 1816.5 48.1526 1815.73L18.1381 1804.64L29.2343 1774.62C30.0004 1772.55 28.9416 1770.25 26.8696 1769.48C24.7975 1768.72 22.4967 1769.77 21.7307 1771.85L9.24741 1805.61ZM14.6714 1810.63C17.9312 1809.13 21.1478 1807.64 24.3217 1806.16L20.9383 1798.91C17.7777 1800.39 14.5741 1801.87 11.3271 1803.37L14.6714 1810.63ZM42.8552 1797.39C49.0973 1794.38 55.1587 1791.42 61.0431 1788.5L57.4844 1781.34C51.6321 1784.24 45.6017 1787.19 39.3892 1790.18L42.8552 1797.39ZM79.4295 1779.2C85.6448 1775.99 91.6404 1772.83 97.4217 1769.72L93.63 1762.68C87.8921 1765.77 81.9381 1768.9 75.7623 1772.09L79.4295 1779.2ZM115.305 1759.86C121.532 1756.34 127.475 1752.87 133.142 1749.47L129.024 1742.61C123.419 1745.98 117.536 1749.41 111.366 1752.9L115.305 1759.86ZM150.289 1738.82C156.356 1734.91 162.046 1731.08 167.375 1727.32L162.766 1720.78C157.535 1724.47 151.937 1728.24 145.956 1732.09L150.289 1738.82ZM183.999 1714.93C189.789 1710.34 195.021 1705.86 199.721 1701.49L194.271 1695.63C189.743 1699.85 184.675 1704.19 179.03 1708.66L183.999 1714.93ZM214.09 1686.53C219.076 1680.62 223.067 1674.87 226.123 1669.25L219.098 1665.43C216.341 1670.49 212.673 1675.8 207.973 1681.38L214.09 1686.53ZM233.306 1648.84C234.469 1641.19 233.803 1633.89 231.605 1626.93L223.976 1629.34C225.818 1635.17 226.37 1641.23 225.397 1647.64L233.306 1648.84ZM221.395 1607.88C217.34 1602.56 212.437 1597.46 206.898 1592.55L201.588 1598.53C206.837 1603.19 211.359 1607.91 215.03 1612.73L221.395 1607.88ZM190.478 1579.64C185.06 1575.8 179.294 1572.03 173.282 1568.31L169.074 1575.12C174.979 1578.77 180.6 1582.44 185.852 1586.17L190.478 1579.64ZM155.61 1557.86C149.758 1554.53 143.766 1551.21 137.711 1547.9L133.87 1554.91C139.906 1558.22 145.853 1561.51 151.649 1564.81L155.61 1557.86ZM119.789 1538.15C113.817 1534.9 107.851 1531.64 101.951 1528.35L98.0532 1535.33C103.992 1538.65 109.988 1541.92 115.967 1545.17L119.789 1538.15ZM84.3414 1518.26C78.4452 1514.77 72.6991 1511.23 67.1727 1507.63L62.8071 1514.34C68.4493 1518.01 74.2956 1521.61 80.2677 1525.14L84.3414 1518.26ZM50.6457 1496.12C45.1164 1491.96 39.9646 1487.71 35.2803 1483.35L29.8305 1489.21C34.7554 1493.79 40.1285 1498.22 45.8375 1502.51L50.6457 1496.12ZM21.9233 1468.9C19.8968 1466.28 18.0572 1463.62 16.4184 1460.92L9.58008 1465.08C11.3876 1468.05 13.4002 1470.96 15.5942 1473.8L21.9233 1468.9ZM16.4184 1460.92C14.6994 1458.09 13.2845 1455.28 12.1531 1452.48L4.73637 1455.48C6.03802 1458.7 7.65012 1461.9 9.58008 1465.08L16.4184 1460.92ZM8.5782 1434.43C8.58907 1428.4 9.76486 1422.33 12.0235 1416.22L4.51982 1413.45C1.97411 1420.34 0.590977 1427.34 0.578214 1434.41L8.5782 1434.43ZM20.8906 1399.34C24.3144 1394.27 28.4037 1389.21 33.0965 1384.15L27.2336 1378.71C22.308 1384.01 17.9515 1389.4 14.262 1394.86L20.8906 1399.34ZM47.2335 1370.5C52.0025 1366.32 57.1357 1362.18 62.5897 1358.06L57.7731 1351.67C52.182 1355.89 46.8948 1360.16 41.9613 1364.49L47.2335 1370.5ZM78.8083 1346.55C84.2032 1342.93 89.8174 1339.35 95.6184 1335.81L91.4533 1328.98C85.5632 1332.58 79.8511 1336.22 74.3518 1339.91L78.8083 1346.55ZM112.854 1325.73C118.577 1322.51 124.433 1319.33 130.394 1316.2L126.674 1309.11C120.65 1312.28 114.726 1315.49 108.931 1318.76L112.854 1325.73ZM148.2 1307.13C154.144 1304.19 160.161 1301.3 166.227 1298.46L162.836 1291.22C156.723 1294.08 150.654 1296.99 144.656 1299.96L148.2 1307.13ZM184.435 1290.16C190.542 1287.44 196.671 1284.77 202.799 1282.17L199.668 1274.8C193.501 1277.43 187.331 1280.11 181.181 1282.85L184.435 1290.16ZM221.296 1274.47C227.538 1271.92 233.751 1269.44 239.91 1267.03L236.994 1259.58C230.802 1262.01 224.554 1264.5 218.276 1267.06L221.296 1274.47ZM258.628 1259.85C265 1257.45 271.279 1255.13 277.436 1252.89L274.708 1245.37C268.522 1247.62 262.212 1249.95 255.809 1252.36L258.628 1259.85ZM296.308 1246.17C302.811 1243.9 309.121 1241.74 315.196 1239.69L312.643 1232.11C306.54 1234.17 300.201 1236.34 293.668 1238.62L296.308 1246.17ZM334.33 1233.38C341.135 1231.17 347.509 1229.16 353.371 1227.35L351.005 1219.7C345.111 1221.53 338.705 1223.55 331.867 1225.76L334.33 1233.38ZM372.599 1221.56C376.16 1220.52 379.33 1219.62 382.07 1218.85L379.929 1211.15C377.152 1211.92 373.949 1212.83 370.36 1213.88L372.599 1221.56ZM382.07 1218.85C384.88 1218.07 388.038 1217.18 391.509 1216.18L389.281 1208.49C385.845 1209.49 382.716 1210.37 379.929 1211.15L382.07 1218.85ZM410.536 1210.39C416.409 1208.52 422.741 1206.43 429.448 1204.09L426.816 1196.54C420.183 1198.85 413.92 1200.92 408.11 1202.77L410.536 1210.39ZM448.075 1197.31C454.057 1195.04 460.241 1192.59 466.583 1189.97L463.525 1182.58C457.259 1185.17 451.147 1187.59 445.233 1189.83L448.075 1197.31ZM484.896 1182.07C490.807 1179.41 496.81 1176.6 502.872 1173.63L499.354 1166.44C493.373 1169.37 487.448 1172.15 481.612 1174.77L484.896 1182.07ZM520.593 1164.57C526.379 1161.49 532.19 1158.26 537.998 1154.88L533.974 1147.96C528.255 1151.29 522.531 1154.47 516.828 1157.51L520.593 1164.57ZM555.029 1144.51C560.596 1140.96 566.136 1137.27 571.624 1133.44L567.039 1126.88C561.65 1130.65 556.206 1134.27 550.732 1137.76L555.029 1144.51ZM587.714 1121.62C592.962 1117.57 598.138 1113.37 603.217 1109.02L598.015 1102.95C593.042 1107.2 587.972 1111.31 582.826 1115.29L587.714 1121.62ZM618.038 1095.62C622.841 1091.02 627.529 1086.28 632.078 1081.37L626.214 1075.93C621.777 1080.71 617.201 1085.35 612.508 1089.84L618.038 1095.62ZM645.221 1066.27C649.424 1061.11 653.47 1055.79 657.337 1050.31L650.801 1045.7C647.044 1051.02 643.109 1056.2 639.018 1061.22L645.221 1066.27ZM668.299 1033.52C671.725 1027.83 674.959 1021.97 677.977 1015.95L670.826 1012.36C667.901 1018.2 664.767 1023.87 661.443 1029.4L668.299 1033.52ZM686.261 997.669C688.754 991.529 691.027 985.234 693.061 978.781L685.431 976.376C683.462 982.622 681.262 988.715 678.849 994.659L686.261 997.669ZM698.321 959.409C699.793 952.979 701.033 946.405 702.025 939.683L694.11 938.516C693.149 945.03 691.948 951.398 690.523 957.623L698.321 959.409ZM704.193 919.733C704.657 913.176 704.89 906.489 704.88 899.67L696.88 899.682C696.89 906.31 696.663 912.805 696.213 919.168L704.193 919.733ZM704.16 879.583C703.71 873.086 703.043 866.478 702.152 859.756L694.222 860.807C695.091 867.367 695.741 873.81 696.18 880.136L704.16 879.583ZM698.958 840.091C698.327 836.799 697.643 833.482 696.905 830.138L689.093 831.862C689.815 835.134 690.484 838.38 691.101 841.598L698.958 840.091ZM696.905 830.138C696.173 826.821 695.403 823.554 694.595 820.337L686.836 822.285C687.625 825.427 688.378 828.618 689.093 831.862L696.905 830.138ZM689.236 801.399C687.209 794.992 685.022 788.799 682.685 782.811L675.233 785.719C677.505 791.542 679.633 797.569 681.609 803.812L689.236 801.399ZM674.814 764.56C671.921 758.464 668.862 752.602 665.648 746.958L658.697 750.917C661.812 756.387 664.779 762.073 667.586 767.989L674.814 764.56ZM655.181 730.114C651.423 724.559 647.506 719.238 643.444 714.135L637.185 719.117C641.119 724.061 644.914 729.215 648.554 734.596L655.181 730.114ZM630.518 699.111C625.983 694.227 621.311 689.563 616.518 685.099L611.066 690.953C615.722 695.29 620.257 699.818 624.655 704.554L630.518 699.111ZM601.586 672.114C596.446 667.935 591.201 663.946 585.87 660.126L581.21 666.628C586.417 670.36 591.533 674.251 596.539 678.321L601.586 672.114ZM569.52 649.067C563.964 645.516 558.341 642.115 552.67 638.842L548.671 645.771C554.247 648.989 559.767 652.328 565.212 655.808L569.52 649.067ZM535.443 629.333C529.63 626.258 523.789 623.291 517.942 620.408L514.405 627.584C520.194 630.438 525.966 633.371 531.702 636.405L535.443 629.333ZM500.262 611.926C494.316 609.141 488.382 606.419 482.487 603.737L479.174 611.019C485.055 613.694 490.959 616.403 496.869 619.171L500.262 611.926ZM464.689 595.677C458.703 592.966 452.781 590.273 446.942 587.569L443.58 594.829C449.451 597.547 455.397 600.251 461.39 602.965L464.689 595.677ZM429.352 579.23C423.452 576.352 417.675 573.436 412.044 570.45L408.296 577.518C414.022 580.554 419.882 583.511 425.845 586.42L429.352 579.23ZM395.181 560.999C389.575 557.66 384.168 554.213 378.989 550.623L374.431 557.198C379.782 560.906 385.346 564.452 391.087 567.872L395.181 560.999ZM363.743 539.039C358.805 534.902 354.157 530.569 349.831 526L344.021 531.5C348.578 536.313 353.454 540.856 358.605 545.172L363.743 539.039ZM337.748 511.396C334.102 506.304 330.808 500.928 327.901 495.228L320.774 498.863C323.869 504.931 327.373 510.647 331.243 516.053L337.748 511.396ZM320.61 477.832C318.673 472.052 317.079 465.96 315.856 459.522L307.996 461.015C309.285 467.798 310.97 474.241 313.025 480.374L320.61 477.832ZM313.435 440.661C313.209 437.492 313.063 434.247 312.999 430.923L305.001 431.077C305.067 434.535 305.219 437.918 305.455 441.229L313.435 440.661ZM312.999 430.923C312.937 427.678 313.012 424.427 313.22 421.169L305.236 420.658C305.014 424.133 304.934 427.606 305.001 431.077L312.999 430.923ZM315.996 401.776C317.377 395.506 319.221 389.215 321.502 382.911L313.979 380.189C311.588 386.797 309.644 393.422 308.183 400.055L315.996 401.776ZM329.241 364.759C332.079 358.963 335.262 353.163 338.772 347.365L331.928 343.223C328.305 349.209 325.006 355.216 322.056 361.241L329.241 364.759ZM349.718 330.735C353.491 325.424 357.519 320.122 361.787 314.832L355.56 309.809C351.198 315.217 347.07 320.649 343.197 326.102L349.718 330.735ZM374.753 299.602C379.132 294.712 383.702 289.838 388.45 284.983L382.73 279.39C377.906 284.323 373.255 289.283 368.794 294.265L374.753 299.602ZM402.75 270.917C407.544 266.372 412.483 261.849 417.556 257.349L412.248 251.364C407.112 255.919 402.108 260.502 397.246 265.111L402.75 270.917ZM432.794 244.233C437.889 239.973 443.095 235.738 448.403 231.53L443.432 225.261C438.073 229.51 432.813 233.789 427.663 238.096L432.794 244.233ZM464.331 219.205C469.639 215.195 475.032 211.212 480.499 207.259L475.812 200.776C470.301 204.76 464.863 208.776 459.508 212.822L464.331 219.205ZM496.918 195.632C502.407 191.823 507.959 188.044 513.565 184.299L509.12 177.647C503.477 181.417 497.886 185.222 492.357 189.06L496.918 195.632ZM530.413 173.244C536.047 169.611 541.725 166.014 547.438 162.453L543.206 155.664C537.46 159.245 531.748 162.865 526.078 166.52L530.413 173.244ZM564.616 151.917C570.368 148.444 576.146 145.011 581.941 141.617L577.899 134.713C572.073 138.124 566.265 141.577 560.481 145.068L564.616 151.917ZM599.408 131.54C605.266 128.209 611.133 124.922 617 121.68L613.131 114.678C607.236 117.935 601.341 121.238 595.454 124.585L599.408 131.54ZM634.702 112.032C640.646 108.837 646.581 105.69 652.499 102.594L648.791 95.5056C642.847 98.6153 636.885 101.776 630.914 104.986L634.702 112.032ZM670.422 93.342C676.467 90.263 682.483 87.2399 688.461 84.2751L684.907 77.1082C678.904 80.0854 672.862 83.1213 666.791 86.2135L670.422 93.342ZM706.592 75.4022C712.72 72.4429 718.796 69.5492 724.809 66.7238L721.406 59.4835C715.369 62.3207 709.267 65.2265 703.113 68.1981L706.592 75.4022ZM743.11 58.2414C749.328 55.3996 755.462 52.6374 761.497 49.9578L758.251 42.646C752.189 45.3373 746.029 48.1114 739.784 50.9653L743.11 58.2414ZM779.976 41.8787C786.305 39.1544 792.503 36.5317 798.551 34.0147L795.477 26.6288C789.399 29.1583 783.172 31.7936 776.813 34.5305L779.976 41.8787ZM817.225 26.3858C820.355 25.1319 823.434 23.911 826.461 22.7237L823.539 15.2763C820.494 16.4707 817.397 17.6987 814.25 18.9596L817.225 26.3858Z" fill="#CB7BFF"/>
</svg>
