<svg width="325" height="109" viewBox="0 0 325 109" fill="none" xmlns="http://www.w3.org/2000/svg">
<path d="M50.8527 0L64.9012 33.6433L99.2164 37.5094L73.5836 62.1683L80.7431 98.201L50.8527 79.7977L20.9622 98.201L28.1217 62.1683L2.48891 37.5094L36.8042 33.6433L50.8527 0Z" fill="#FFDF35"/>
<path d="M161.456 0L175.856 33.6433L211.029 37.5094L184.755 62.1683L192.094 98.201L161.456 79.7977L130.818 98.201L138.157 62.1683L111.883 37.5094L147.056 33.6433L161.456 0Z" fill="#FFDF35"/>
<path d="M272.876 0L287.276 33.6433L322.449 37.5094L296.175 62.1683L303.514 98.201L272.876 79.7977L242.238 98.201L249.577 62.1683L223.303 37.5094L258.476 33.6433L272.876 0Z" fill="#FFDF35"/>
</svg>
