<svg width="432" height="108" viewBox="0 0 432 108" fill="none" xmlns="http://www.w3.org/2000/svg">
<path d="M50.3382 0L64.2446 33.2231L98.2127 37.041L72.8392 61.3919L79.9263 96.9745L50.3382 78.8011L20.7502 96.9745L27.8372 61.3919L2.46373 37.041L36.4318 33.2231L50.3382 0Z" fill="#FFDF35"/>
<path d="M159.821 0L174.075 33.2231L208.893 37.041L182.885 61.3919L190.149 96.9745L159.821 78.8011L129.494 96.9745L136.758 61.3919L110.75 37.041L145.567 33.2231L159.821 0Z" fill="#FFDF35"/>
<path d="M270.114 0L284.368 33.2231L319.186 37.041L293.178 61.3919L300.442 96.9745L270.114 78.8011L239.786 96.9745L247.051 61.3919L221.043 37.041L255.86 33.2231L270.114 0Z" fill="#FFDF35"/>
<path d="M380.403 0L394.657 33.2231L429.475 37.041L403.467 61.3919L410.731 96.9745L380.403 78.8011L350.076 96.9745L357.34 61.3919L331.332 37.041L366.149 33.2231L380.403 0Z" fill="#FFDF35"/>
</svg>
